<?xml version="1.0" standalone="no"?>
<!DOCTYPE svg PUBLIC "-//W3C//DTD SVG 20010904//EN"
 "http://www.w3.org/TR/2001/REC-SVG-20010904/DTD/svg10.dtd">
<svg version="1.0" xmlns="http://www.w3.org/2000/svg"
 width="512.000000pt" height="512.000000pt" viewBox="0 0 512.000000 512.000000"
 preserveAspectRatio="xMidYMid meet">
<metadata>
Created by potrace 1.11, written by Peter Selinger 2001-2013
</metadata>
<g transform="translate(0.000000,512.000000) scale(0.100000,-0.100000)"
fill="#000000" stroke="none">
<path d="M0 2560 l0 -2560 2560 0 2560 0 0 2560 0 2560 -2560 0 -2560 0 0
-2560z m3003 1787 c139 -29 230 -57 327 -103 339 -161 510 -465 510 -909 0
-573 -279 -908 -844 -1012 -60 -11 -189 -16 -503 -20 l-423 -5 0 -694 0 -694
-235 0 -235 0 0 1731 0 1730 663 -4 c555 -4 675 -7 740 -20z"/>
<path d="M2070 3334 l0 -646 378 4 c346 4 383 6 455 26 224 61 367 204 424
422 23 90 24 302 0 390 -68 254 -245 402 -530 440 -43 5 -224 10 -403 10
l-324 0 0 -646z"/>
</g>
</svg>
