<svg version="1" xmlns="http://www.w3.org/2000/svg" width="682.667" height="682.667" viewBox="0 0 512.000000 512.000000"><path d="M0 256v256h512V0H0v256zM305.7 74.6c35.1 5.2 63.1 24.4 76.8 52.7 13.4 27.9 14.1 66.8 1.6 96.8-7.4 17.8-24 37.9-38.2 46.2-8.4 4.9-20.2 9.4-31.4 12-8.5 2-12.6 2.1-76.7 2.4l-67.8.4V440h-50V73h87.6c74 0 89.3.2 98.1 1.6z"/><path d="M170 179.9V243h51.8c65.2 0 72.5-.8 90.7-9.5 14.9-7.1 22.8-16.8 27.2-33.5 2.4-9.1 2.4-32-.1-41-5.8-21.2-19.8-34-42.9-39.3-8.6-1.9-13-2.1-67.9-2.4l-58.8-.4v63z"/></svg>