<?xml version="1.0" standalone="no"?>
<!DOCTYPE svg PUBLIC "-//W3C//DTD SVG 20010904//EN"
 "http://www.w3.org/TR/2001/REC-SVG-20010904/DTD/svg10.dtd">
<svg version="1.0" xmlns="http://www.w3.org/2000/svg"
 width="512.000000pt" height="512.000000pt" viewBox="0 0 512.000000 512.000000"
 preserveAspectRatio="xMidYMid meet">
<metadata>
Created by potrace 1.14, written by Peter Selinger 2001-2017
</metadata>
<g transform="translate(0.000000,512.000000) scale(0.100000,-0.100000)"
fill="#000000" stroke="none">
<path d="M0 2560 l0 -2560 2560 0 2560 0 0 2560 0 2560 -2560 0 -2560 0 0
-2560z m3180 1427 l0 -123 -200 -48 -200 -48 2 -1356 3 -1356 120 -27 c66 -15
155 -35 198 -44 l77 -17 0 -124 0 -124 -615 0 -615 0 0 124 0 124 93 21 c50
11 139 31 197 44 l105 24 3 1355 2 1356 -177 42 c-98 23 -188 44 -200 47 -22
5 -23 9 -23 129 l0 124 615 0 615 0 0 -123z"/>
</g>
</svg>
